# This file uses centimeters as units for non-parametric coordinates.

mtllib cobalt.mtl
g default
v -0.567270 4.871150 -4.864400
v 2.622050 3.694260 -3.681100
v 0.904530 2.985350 -4.816240
v 5.021610 3.110850 0.226420
v 4.801040 1.400060 1.081460
v 5.566170 3.016980 -0.836860
v -3.192270 4.531550 0.962320
v -0.643560 6.148570 0.921030
v -4.180060 4.934750 -1.418140
v -4.242930 -0.636790 2.840840
v -3.671350 -1.747500 0.176500
v -1.482360 -2.148570 2.821940
v -6.441020 1.114830 -0.663100
v -5.760190 3.659740 -2.716770
v -4.433530 1.508470 -2.965860
v -5.547270 0.402020 -1.326760
v -5.576840 -0.316330 -0.243300
v -3.612210 -0.310790 -1.990420
v 1.109220 -0.647740 -2.484130
v 3.333790 -1.123400 -0.460960
v -1.504150 -2.076670 0.337840
v -3.038210 4.436500 -3.906570
v -2.130130 2.931440 -4.486550
v 1.471940 1.955680 4.709430
v 3.126540 1.649910 3.149110
v 2.084780 4.132600 3.128610
v 5.863930 0.674490 -2.000340
v 6.172120 2.088530 -1.727460
v 6.441020 1.438280 -1.226840
v 3.266080 -0.353820 -2.386380
v 5.367570 -0.210330 -1.071390
v 0.859520 -1.285540 3.527800
v 3.337550 -0.210400 2.251670
v 0.925620 -0.400830 4.666820
v 2.208470 4.539080 -2.251450
v 5.626840 3.124340 -2.260230
v 3.383850 1.528590 -3.175970
v 1.203210 1.204440 -3.499440
v -5.595390 0.937790 0.711850
v -5.299310 2.327460 0.284720
v -3.729510 0.187670 4.274990
v -2.150360 -1.281990 4.702290
v -1.083480 3.903370 3.826220
v 0.581670 4.023850 3.642590
v 0.290480 2.856160 4.453630
v 2.202850 5.218490 0.119230
v -0.301070 5.863370 -2.173370
v -2.410560 5.478650 -1.681920
v 4.624620 -0.089720 0.729730
v -2.475520 1.493900 4.552030
v -0.204520 0.496550 4.864400
v -0.475310 1.727880 4.822130
v -3.989220 2.180590 2.395060
v -5.557460 -0.339380 1.104410
v -1.717170 1.185130 -3.783650
v 1.189090 -1.577680 1.317500
v -0.932950 -1.047030 -2.592490
v -2.298240 -0.019560 4.780530
vt 0.458400 0.649300
vt 0.388000 0.664100
vt 0.423100 0.619800
vt 0.419000 0.140100
vt 0.364800 0.134800
vt 0.427600 0.106700
vt 0.231500 0.382200
vt 0.314400 0.381200
vt 0.209400 0.471000
vt 0.145200 0.233400
vt 0.131100 0.141000
vt 0.204200 0.173100
vt 0.604600 0.511100
vt 0.557400 0.590900
vt 0.526500 0.538600
vt 0.571400 0.489300
vt 0.065000 0.155400
vt 0.039600 0.123000
vt 0.091900 0.074500
vt 0.232000 0.010400
vt 0.297000 0.074300
vt 0.183400 0.120400
vt 0.506300 0.629800
vt 0.478100 0.595600
vt 0.295900 0.228800
vt 0.329700 0.192000
vt 0.359100 0.268900
vt 0.388100 0.041700
vt 0.417000 0.072300
vt 0.398200 0.075000
vt 0.303600 0.010400
vt 0.353200 0.063100
vt 0.252900 0.174000
vt 0.307100 0.147100
vt 0.263200 0.198600
vt 0.400000 0.718900
vt 0.303500 0.690700
vt 0.347900 0.606400
vt 0.396500 0.567800
vt 0.053600 0.365400
vt 0.099400 0.322300
vt 0.127000 0.373800
vt 0.194000 0.246600
vt 0.212200 0.211700
vt 0.274000 0.298400
vt 0.312200 0.283900
vt 0.287300 0.259400
vt 0.397900 0.367400
vt 0.348300 0.471300
vt 0.272100 0.471500
vt 0.473300 0.734200
vt 0.547600 0.378700
vt 0.437900 0.438100
vt 0.335700 0.108600
vt 0.226500 0.261200
vt 0.254900 0.223700
vt 0.262100 0.246600
vt 0.187300 0.313600
vt 0.528000 0.704100
vt 0.568700 0.662600
vt 0.622800 0.575300
vt 0.079200 0.196900
vt 0.462500 0.545300
vt 0.326400 0.538900
vt 0.250700 0.127800
vt 0.169300 0.029400
vt 0.511100 0.466500
vt 0.430700 0.466500
vt 0.379500 0.499600
vt 0.082600 0.272200
vt 0.495000 0.308400
vt 0.270400 0.611300
vt 0.454500 0.072600
vt 0.218500 0.232600
vt 0.011700 0.156900
vn 0.007800 0.587833 -0.808945
vn 0.501780 0.478381 -0.720672
vn 0.243208 -0.147905 -0.958631
vn 0.770493 0.497295 0.398796
vn 0.801099 -0.016700 0.598299
vn 0.694376 0.670577 0.261091
vn -0.593216 0.667318 0.450312
vn -0.065001 0.959615 0.273704
vn -0.561103 0.826105 0.052100
vn -0.637357 -0.656556 0.403373
vn -0.392209 -0.906620 -0.155603
vn -0.058302 -0.973140 0.222709
vn -0.997395 -0.060100 -0.039900
vn -0.819664 0.361984 -0.443980
vn -0.479079 -0.369384 -0.796265
vn -0.997395 -0.060100 -0.039900
vn -0.479079 -0.369384 -0.796265
vn -0.617794 -0.532395 -0.578694
vn -0.678686 -0.695886 -0.234795
vn -0.617794 -0.532395 -0.578694
vn -0.377514 -0.666625 -0.642724
vn -0.377514 -0.666625 -0.642724
vn -0.392209 -0.906620 -0.155603
vn -0.678686 -0.695886 -0.234795
vn 0.145405 -0.748825 -0.646621
vn 0.317190 -0.946469 -0.059898
vn 0.013700 -0.984775 -0.173296
vn -0.819664 0.361984 -0.443980
vn -0.443193 0.536991 -0.717788
vn -0.479079 -0.369384 -0.796265
vn -0.312797 -0.163798 -0.935590
vn 0.007800 0.587833 -0.808945
vn 0.243208 -0.147905 -0.958631
vn 0.408918 0.167108 0.897140
vn 0.734110 0.031300 0.678309
vn 0.475477 0.639169 0.604471
vn 0.666481 -0.433288 -0.606683
vn 0.909580 0.237895 -0.340692
vn 0.994960 -0.058698 0.081297
vn 0.232502 -0.700705 -0.674504
vn 0.628498 -0.775698 -0.057300
vn 0.317190 -0.946469 -0.059898
vn 0.376199 -0.837698 0.395899
vn 0.640272 -0.575675 0.508577
vn 0.381208 -0.424209 0.821418
vn -0.312797 -0.163798 -0.935590
vn -0.443193 0.536991 -0.717788
vn 0.007800 0.587833 -0.808945
vn 0.501780 0.478381 -0.720672
vn 0.402606 0.858914 -0.316505
vn 0.697583 0.509387 -0.503888
vn 0.243208 -0.147905 -0.958631
vn 0.339794 -0.254596 -0.905384
vn 0.139197 -0.510090 -0.848783
vn -0.997395 -0.060100 -0.039900
vn -0.802212 0.223303 0.553708
vn -0.770521 0.457912 0.443412
vn 0.994960 -0.058698 0.081297
vn 0.909580 0.237895 -0.340692
vn 0.694376 0.670577 0.261091
vn -0.686120 -0.019701 0.727221
vn -0.637357 -0.656556 0.403373
vn -0.222305 -0.619313 0.753016
vn -0.065001 0.959615 0.273704
vn -0.593216 0.667318 0.450312
vn -0.270408 0.626720 0.730823
vn -0.270408 0.626720 0.730823
vn 0.125704 0.676621 0.725522
vn -0.065001 0.959615 0.273704
vn -0.270408 0.626720 0.730823
vn 0.049500 0.443903 0.894707
vn 0.125704 0.676621 0.725522
vn 0.451419 0.889337 0.072803
vn 0.102400 0.962399 -0.251600
vn -0.065001 0.959615 0.273704
vn 0.102400 0.962399 -0.251600
vn -0.274996 0.939986 -0.201997
vn -0.065001 0.959615 0.273704
vn 0.402606 0.858914 -0.316505
vn 0.501780 0.478381 -0.720672
vn 0.102400 0.962399 -0.251600
vn 0.451419 0.889337 0.072803
vn 0.697583 0.509387 -0.503888
vn 0.402606 0.858914 -0.316505
vn 0.007800 0.587833 -0.808945
vn -0.443193 0.536991 -0.717788
vn 0.102400 0.962399 -0.251600
vn 0.801099 -0.016700 0.598299
vn 0.670622 -0.587019 0.453515
vn 0.994960 -0.058698 0.081297
vn 0.734110 0.031300 0.678309
vn 0.640272 -0.575675 0.508577
vn 0.801099 -0.016700 0.598299
vn 0.734110 0.031300 0.678309
vn 0.381208 -0.424209 0.821418
vn 0.640272 -0.575675 0.508577
vn 0.640272 -0.575675 0.508577
vn 0.317190 -0.946469 -0.059898
vn 0.670622 -0.587019 0.453515
vn -0.392998 0.342198 0.853495
vn 0.023601 -0.033902 0.999146
vn -0.075902 0.190605 0.978728
vn -0.270408 0.626720 0.730823
vn -0.718470 0.444281 0.535178
vn -0.392998 0.342198 0.853495
vn -0.718470 0.444281 0.535178
vn -0.686120 -0.019701 0.727221
vn -0.392998 0.342198 0.853495
vn -0.593216 0.667318 0.450312
vn -0.770521 0.457912 0.443412
vn -0.718470 0.444281 0.535178
vn -0.274996 0.939986 -0.201997
vn -0.443193 0.536991 -0.717788
vn -0.561103 0.826105 0.052100
vn -0.770521 0.457912 0.443412
vn -0.819664 0.361984 -0.443980
vn -0.997395 -0.060100 -0.039900
vn -0.561103 0.826105 0.052100
vn -0.819664 0.361984 -0.443980
vn -0.770521 0.457912 0.443412
vn -0.839295 -0.419697 0.345598
vn -0.392209 -0.906620 -0.155603
vn -0.637357 -0.656556 0.403373
vn -0.637357 -0.656556 0.403373
vn -0.058302 -0.973140 0.222709
vn -0.222305 -0.619313 0.753016
vn -0.222305 -0.619313 0.753016
vn 0.376199 -0.837698 0.395899
vn 0.381208 -0.424209 0.821418
vn 0.139197 -0.510090 -0.848783
vn -0.150501 -0.481902 -0.863203
vn 0.243208 -0.147905 -0.958631
vn 0.339794 -0.254596 -0.905384
vn 0.232502 -0.700705 -0.674504
vn 0.139197 -0.510090 -0.848783
vn 0.994960 -0.058698 0.081297
vn 0.628498 -0.775698 -0.057300
vn 0.666481 -0.433288 -0.606683
vn 0.628498 -0.775698 -0.057300
vn 0.670622 -0.587019 0.453515
vn 0.317190 -0.946469 -0.059898
vn 0.376199 -0.837698 0.395899
vn -0.058302 -0.973140 0.222709
vn 0.308409 -0.945628 0.103303
vn -0.058302 -0.973140 0.222709
vn -0.392209 -0.906620 -0.155603
vn 0.013700 -0.984775 -0.173296
vn -0.392209 -0.906620 -0.155603
vn -0.025500 -0.763411 -0.645409
vn 0.013700 -0.984775 -0.173296
vn -0.479079 -0.369384 -0.796265
vn -0.150501 -0.481902 -0.863203
vn -0.377514 -0.666625 -0.642724
vn -0.025500 -0.763411 -0.645409
vn 0.145405 -0.748825 -0.646621
vn 0.013700 -0.984775 -0.173296
vn -0.025500 -0.763411 -0.645409
vn 0.139197 -0.510090 -0.848783
vn 0.145405 -0.748825 -0.646621
vn -0.150501 -0.481902 -0.863203
vn -0.479079 -0.369384 -0.796265
vn -0.312797 -0.163798 -0.935590
vn -0.479079 -0.369384 -0.796265
vn -0.443193 0.536991 -0.717788
vn -0.312797 -0.163798 -0.935590
vn -0.718470 0.444281 0.535178
vn -0.839295 -0.419697 0.345598
vn -0.686120 -0.019701 0.727221
vn 0.770493 0.497295 0.398796
vn 0.451419 0.889337 0.072803
vn 0.475477 0.639169 0.604471
vn 0.734110 0.031300 0.678309
vn 0.770493 0.497295 0.398796
vn 0.475477 0.639169 0.604471
vn 0.801099 -0.016700 0.598299
vn 0.994960 -0.058698 0.081297
vn 0.694376 0.670577 0.261091
vn 0.339794 -0.254596 -0.905384
vn 0.501780 0.478381 -0.720672
vn 0.697583 0.509387 -0.503888
vn 0.666481 -0.433288 -0.606683
vn 0.339794 -0.254596 -0.905384
vn 0.697583 0.509387 -0.503888
vn 0.232502 -0.700705 -0.674504
vn 0.666481 -0.433288 -0.606683
vn 0.628498 -0.775698 -0.057300
vn 0.376199 -0.837698 0.395899
vn 0.308409 -0.945628 0.103303
vn 0.640272 -0.575675 0.508577
vn -0.839295 -0.419697 0.345598
vn -0.718470 0.444281 0.535178
vn -0.802212 0.223303 0.553708
vn 0.475477 0.639169 0.604471
vn 0.451419 0.889337 0.072803
vn -0.065001 0.959615 0.273704
vn -0.270408 0.626720 0.730823
vn -0.075902 0.190605 0.978728
vn 0.049500 0.443903 0.894707
vn 0.451419 0.889337 0.072803
vn 0.402606 0.858914 -0.316505
vn 0.102400 0.962399 -0.251600
vn -0.443193 0.536991 -0.717788
vn -0.274996 0.939986 -0.201997
vn 0.102400 0.962399 -0.251600
vn 0.670622 -0.587019 0.453515
vn 0.628498 -0.775698 -0.057300
vn 0.994960 -0.058698 0.081297
vn 0.640272 -0.575675 0.508577
vn 0.670622 -0.587019 0.453515
vn 0.801099 -0.016700 0.598299
vn 0.734110 0.031300 0.678309
vn 0.408918 0.167108 0.897140
vn 0.381208 -0.424209 0.821418
vn 0.640272 -0.575675 0.508577
vn 0.308409 -0.945628 0.103303
vn 0.317190 -0.946469 -0.059898
vn -0.222305 -0.619313 0.753016
vn 0.381208 -0.424209 0.821418
vn 0.023601 -0.033902 0.999146
vn -0.270408 0.626720 0.730823
vn -0.593216 0.667318 0.450312
vn -0.718470 0.444281 0.535178
vn -0.593216 0.667318 0.450312
vn -0.561103 0.826105 0.052100
vn -0.770521 0.457912 0.443412
vn -0.443193 0.536991 -0.717788
vn -0.819664 0.361984 -0.443980
vn -0.561103 0.826105 0.052100
vn -0.222305 -0.619313 0.753016
vn -0.058302 -0.973140 0.222709
vn 0.376199 -0.837698 0.395899
vn -0.150501 -0.481902 -0.863203
vn -0.312797 -0.163798 -0.935590
vn 0.243208 -0.147905 -0.958631
vn 0.232502 -0.700705 -0.674504
vn 0.145405 -0.748825 -0.646621
vn 0.139197 -0.510090 -0.848783
vn 0.145405 -0.748825 -0.646621
vn 0.232502 -0.700705 -0.674504
vn 0.317190 -0.946469 -0.059898
vn -0.058302 -0.973140 0.222709
vn 0.013700 -0.984775 -0.173296
vn 0.308409 -0.945628 0.103303
vn -0.150501 -0.481902 -0.863203
vn -0.025500 -0.763411 -0.645409
vn -0.377514 -0.666625 -0.642724
vn -0.025500 -0.763411 -0.645409
vn -0.150501 -0.481902 -0.863203
vn 0.139197 -0.510090 -0.848783
vn 0.734110 0.031300 0.678309
vn 0.801099 -0.016700 0.598299
vn 0.770493 0.497295 0.398796
vn -0.065001 0.959615 0.273704
vn -0.274996 0.939986 -0.201997
vn -0.561103 0.826105 0.052100
vn 0.451419 0.889337 0.072803
vn 0.770493 0.497295 0.398796
vn 0.697583 0.509387 -0.503888
vn 0.770493 0.497295 0.398796
vn 0.694376 0.670577 0.261091
vn 0.697583 0.509387 -0.503888
vn -0.392209 -0.906620 -0.155603
vn -0.839295 -0.419697 0.345598
vn -0.678686 -0.695886 -0.234795
vn -0.392209 -0.906620 -0.155603
vn -0.377514 -0.666625 -0.642724
vn -0.025500 -0.763411 -0.645409
vn -0.392998 0.342198 0.853495
vn -0.686120 -0.019701 0.727221
vn -0.191395 0.008500 0.981476
vn -0.392998 0.342198 0.853495
vn -0.191395 0.008500 0.981476
vn 0.023601 -0.033902 0.999146
vn 0.381208 -0.424209 0.821418
vn 0.408918 0.167108 0.897140
vn 0.023601 -0.033902 0.999146
vn 0.023601 -0.033902 0.999146
vn 0.408918 0.167108 0.897140
vn -0.075902 0.190605 0.978728
vn -0.270408 0.626720 0.730823
vn -0.392998 0.342198 0.853495
vn -0.075902 0.190605 0.978728
vn 0.125704 0.676621 0.725522
vn 0.475477 0.639169 0.604471
vn -0.065001 0.959615 0.273704
vn 0.049500 0.443903 0.894707
vn 0.408918 0.167108 0.897140
vn 0.125704 0.676621 0.725522
vn -0.075902 0.190605 0.978728
vn 0.408918 0.167108 0.897140
vn 0.049500 0.443903 0.894707
vn 0.408918 0.167108 0.897140
vn 0.475477 0.639169 0.604471
vn 0.125704 0.676621 0.725522
vn 0.232502 -0.700705 -0.674504
vn 0.339794 -0.254596 -0.905384
vn 0.666481 -0.433288 -0.606683
vn 0.666481 -0.433288 -0.606683
vn 0.697583 0.509387 -0.503888
vn 0.909580 0.237895 -0.340692
vn 0.909580 0.237895 -0.340692
vn 0.697583 0.509387 -0.503888
vn 0.694376 0.670577 0.261091
vn 0.317190 -0.946469 -0.059898
vn 0.308409 -0.945628 0.103303
vn 0.013700 -0.984775 -0.173296
vn -0.997395 -0.060100 -0.039900
vn -0.839295 -0.419697 0.345598
vn -0.802212 0.223303 0.553708
vn -0.718470 0.444281 0.535178
vn -0.770521 0.457912 0.443412
vn -0.802212 0.223303 0.553708
vn -0.678686 -0.695886 -0.234795
vn -0.997395 -0.060100 -0.039900
vn -0.617794 -0.532395 -0.578694
vn -0.839295 -0.419697 0.345598
vn -0.997395 -0.060100 -0.039900
vn -0.678686 -0.695886 -0.234795
vn -0.479079 -0.369384 -0.796265
vn -0.377514 -0.666625 -0.642724
vn -0.617794 -0.532395 -0.578694
vn 0.501780 0.478381 -0.720672
vn 0.007800 0.587833 -0.808945
vn 0.102400 0.962399 -0.251600
vn 0.243208 -0.147905 -0.958631
vn 0.501780 0.478381 -0.720672
vn 0.339794 -0.254596 -0.905384
vn -0.839295 -0.419697 0.345598
vn -0.637357 -0.656556 0.403373
vn -0.686120 -0.019701 0.727221
vn -0.686120 -0.019701 0.727221
vn -0.222305 -0.619313 0.753016
vn -0.191395 0.008500 0.981476
vn -0.191395 0.008500 0.981476
vn -0.222305 -0.619313 0.753016
vn 0.023601 -0.033902 0.999146
s off
g cobalt:Boulder2
usemtl cobalt:blinn1SG
f 1/1/1 2/2/2 3/3/3
f 4/4/4 5/5/5 6/6/6
f 7/7/7 8/8/8 9/9/9
f 10/10/10 11/11/11 12/12/12
f 13/13/13 14/14/14 15/15/15
f 13/13/16 15/15/17 16/16/18
f 17/17/19 16/18/20 18/19/21
f 18/19/22 11/11/23 17/17/24
f 19/20/25 20/21/26 21/22/27
f 14/14/28 22/23/29 15/15/30
f 23/24/31 1/1/32 3/3/33
f 24/25/34 25/26/35 26/27/36
f 27/28/37 28/29/38 29/30/39
f 30/31/40 31/32/41 20/21/42
f 32/33/43 33/34/44 34/35/45
f 23/24/46 22/23/47 1/1/48
f 2/2/49 35/36/50 36/37/51
f 3/3/52 37/38/53 38/39/54
f 13/40/55 39/41/56 40/42/57
f 29/30/58 28/29/59 6/6/60
f 41/43/61 10/10/62 42/44/63
f 8/8/64 7/7/65 43/45/66
f 43/45/67 44/46/68 8/8/69
f 43/45/70 45/47/71 44/46/72
f 46/48/73 47/49/74 8/8/75
f 47/49/76 48/50/77 8/8/78
f 35/36/79 2/2/80 47/51/81
f 46/48/82 36/52/83 35/53/84
f 1/1/85 22/23/86 47/51/87
f 5/5/88 49/54/89 29/30/90
f 25/26/91 33/34/92 5/5/93
f 25/26/94 34/35/95 33/34/96
f 33/34/97 20/21/98 49/54/99
f 50/55/100 51/56/101 52/57/102
f 43/45/103 53/58/104 50/55/105
f 53/58/106 41/43/107 50/55/108
f 7/7/109 40/42/110 53/58/111
f 48/59/112 22/23/113 9/60/114
f 40/61/115 14/14/116 13/13/117
f 9/60/118 14/14/119 40/61/120
f 54/62/121 11/11/122 10/10/123
f 10/10/124 12/12/125 42/44/126
f 42/44/127 32/33/128 34/35/129
f 38/39/130 55/63/131 3/3/132
f 37/38/133 30/64/134 38/39/135
f 29/30/136 31/32/137 27/28/138
f 31/32/139 49/54/140 20/21/141
f 32/33/142 12/12/143 56/65/144
f 12/12/145 11/11/146 21/22/147
f 11/11/148 57/66/149 21/22/150
f 15/15/151 55/63/152 18/67/153
f 57/66/154 19/20/155 21/22/156
f 57/68/157 38/39/158 19/69/159
f 55/63/160 15/15/161 23/24/162
f 15/15/163 22/23/164 23/24/165
f 53/58/166 54/70/167 41/43/168
f 4/71/169 46/48/170 26/27/171
f 25/26/172 4/4/173 26/27/174
f 5/5/175 29/30/176 6/6/177
f 37/38/178 2/2/179 36/37/180
f 27/72/181 37/38/182 36/37/183
f 30/31/184 27/28/185 31/32/186
f 32/33/187 56/65/188 33/34/189
f 54/70/190 53/58/191 39/41/192
f 26/27/193 46/48/194 8/8/195
f 43/45/196 52/57/197 45/47/198
f 46/48/199 35/53/200 47/49/201
f 22/23/202 48/59/203 47/51/204
f 49/54/205 31/32/206 29/30/207
f 33/34/208 49/54/209 5/5/210
f 25/26/211 24/25/212 34/35/213
f 33/34/214 56/65/215 20/21/216
f 42/44/217 34/35/218 51/56/219
f 43/45/220 7/7/221 53/58/222
f 7/7/223 9/9/224 40/42/225
f 22/23/226 14/14/227 9/60/228
f 42/44/229 12/12/230 32/33/231
f 55/63/232 23/24/233 3/3/234
f 30/64/235 19/69/236 38/39/237
f 19/20/238 30/31/239 20/21/240
f 12/12/241 21/22/242 56/65/243
f 55/63/244 57/68/245 18/67/246
f 57/68/247 55/63/248 38/39/249
f 25/26/250 5/5/251 4/4/252
f 8/8/253 48/50/254 9/9/255
f 46/48/256 4/71/257 36/52/258
f 4/4/259 6/6/260 36/73/261
f 11/11/262 54/62/263 17/17/264
f 11/11/265 18/19/266 57/66/267
f 50/55/268 41/43/269 58/74/270
f 50/55/271 58/74/272 51/56/273
f 34/35/274 24/25/275 51/56/276
f 51/56/277 24/25/278 52/57/279
f 43/45/280 50/55/281 52/57/282
f 44/46/283 26/27/284 8/8/285
f 45/47/286 24/25/287 44/46/288
f 52/57/289 24/25/290 45/47/291
f 24/25/292 26/27/293 44/46/294
f 30/64/295 37/38/296 27/72/297
f 27/28/298 36/73/299 28/29/300
f 28/29/301 36/73/302 6/6/303
f 20/21/304 56/65/305 21/22/306
f 13/40/307 54/70/308 39/41/309
f 53/58/310 40/42/311 39/41/312
f 17/17/313 13/75/314 16/18/315
f 54/62/316 13/75/317 17/17/318
f 15/15/319 18/67/320 16/16/321
f 2/2/322 1/1/323 47/51/324
f 3/3/325 2/2/326 37/38/327
f 54/70/328 10/10/329 41/43/330
f 41/43/331 42/44/332 58/74/333
f 58/74/334 42/44/335 51/56/336
